PathFileType	4	(X/Y/Z)	C:/Users/opensim2020/Desktop/walking_exp_matlab/subject03_walking15_straight_01.trc																																																																																																																																											
DataRate	CameraRate	NumFrames	NumMarkers	Units	OrigDataRate	OrigDataStartFrame	OrigNumFrames																																																																																																																																							
100	100	5	47	mm	100	672	196																																																																																																																																							
Frame#	Time	LFHD			RFHD			LBHD			RBHD			C7			T10			CLAV			STRN			RBAK			LSHO			LUPA			LELB			LFRM			LWRA			LWRB			LFIN			RSHO			RUPA			RELB			RFRM			RWRA			RWRB			RFIN			LASI			RASI			LPSI			RPSI			LTHI			LKNE			LTIB			LANK			LHEE			LTOE			RTHI			RKNE			RTIB			RANK			RHEE			RTOE			*39			*40			*41			*42			*43			*44			*45			*46		
		X1	Y1	Z1	X2	Y2	Z2	X3	Y3	Z3	X4	Y4	Z4	X5	Y5	Z5	X6	Y6	Z6	X7	Y7	Z7	X8	Y8	Z8	X9	Y9	Z9	X10	Y10	Z10	X11	Y11	Z11	X12	Y12	Z12	X13	Y13	Z13	X14	Y14	Z14	X15	Y15	Z15	X16	Y16	Z16	X17	Y17	Z17	X18	Y18	Z18	X19	Y19	Z19	X20	Y20	Z20	X21	Y21	Z21	X22	Y22	Z22	X23	Y23	Z23	X24	Y24	Z24	X25	Y25	Z25	X26	Y26	Z26	X27	Y27	Z27	X28	Y28	Z28	X29	Y29	Z29	X30	Y30	Z30	X31	Y31	Z31	X32	Y32	Z32	X33	Y33	Z33	X34	Y34	Z34	X35	Y35	Z35	X36	Y36	Z36	X37	Y37	Z37	X38	Y38	Z38	X39	Y39	Z39	X40	Y40	Z40	X41	Y41	Z41	X42	Y42	Z42	X43	Y43	Z43	X44	Y44	Z44	X45	Y45	Z45	X46	Y46	Z46	X47	Y47	Z47
																																																																																																																																														
172	1.71	1075.73218	1621.85669	1343.80249	1089.71411	1643.24194	1475.12195	960.67548	1556.95679	1370.13843	978.59296	1577.7666	1497.56946	965.13013	1407.57971	1425.01355	960.08301	1095.59448	1428.18457	1092.52649	1344.41309	1436.4054	1153.09546	1183.94873	1439.00305	921.71265	1228.2135	1516.75903	1059.20227	1374.26208	1277.05054	1056.75159	1174.37329	1207.46521	1054.63232	1050.77893	1196.43713	1061.20483	920.28668	1194.88208	1047.28052	798.93134	1220.69434	1044.63635	810.47314	1163.55444	1025.66772	723.94214	1171.15979	1026.99976	1368.11145	1590.49658	1049.25012	1150.60596	1672.14404	1083.38745	1043.95569	1691.2738	1135.14319	917.26648	1697.47119	1195.08435	836.68304	1666.57214	1160.67651	819.8551	1704.55078	1206.0033	761.11169	1698.57605	1139.29968	943.93085	1328.01636	1110.79102	934.46881	1563.63293	972.06104	963.82007	1357.64844	956.31317	963.28943	1506.32263	1126.53247	640.65369	1287.54089	1156.08618	470.84381	1342.28967	1108.69666	275.04752	1342.40051	1079.72205	71.08079	1391.98425	1035.87915	37.8285	1427.64148	1228.23181	36.54776	1414.96069	1073.76111	635.32825	1607.34192	1110.47192	458.01889	1591.88403	959.70648	341.9845	1589.31055	787.18011	215.69595	1542.51636	740.7666	230.66524	1486.18884	831.04437	78.43112	1527.68176	989.56342	1672.33411	1399.6427	NaN	NaN	NaN	NaN	NaN	NaN	NaN	NaN	NaN	NaN	NaN	NaN	NaN	NaN	NaN	NaN	NaN	NaN	NaN	NaN	NaN
173	1.72	1088.20911	1623.02209	1342.71472	1102.3551	1644.57202	1474.18103	973.18811	1558.15417	1369.19397	991.21198	1579.05701	1496.64539	977.60486	1408.9823	1424.48071	971.88843	1096.99097	1426.84241	1104.93433	1345.58105	1435.71741	1165.30188	1185.01978	1438.25171	933.95392	1229.50952	1515.31934	1071.16345	1375.34924	1276.23499	1072.04456	1175.49426	1207.00757	1072.15039	1051.85925	1195.7677	1081.57886	921.62366	1194.19006	1071.26294	800.16718	1219.67151	1067.7113	811.76886	1162.38416	1055.55005	724.71899	1170.42334	1039.29211	1369.30383	1589.81006	1060.3678	1151.5354	1671.44141	1093.31104	1044.18848	1690.00891	1141.28625	915.97272	1696.2793	1198.41602	833.24591	1665.15063	1164.0625	817.76233	1703.75244	1207.24658	757.39612	1697.33618	1150.84644	944.6546	1326.68286	1123.25415	936.39801	1562.44849	982.73291	964.96765	1357.16284	968.53308	964.95178	1505.61365	1134.58545	640.60815	1287.47241	1160.26184	470.02863	1341.76965	1110.72522	274.9678	1341.95422	1079.77295	71.21922	1391.84778	1035.84045	38.20317	1427.29602	1228.32153	36.50712	1414.89172	1093.67358	637.59314	1606.22754	1135.22827	461.50912	1590.65295	986.00952	343.98325	1588.60852	816.17548	213.69984	1542.401	768.43555	226.37083	1486.29529	865.61609	78.72415	1529.3595	1002.13379	1673.50415	1398.4613	NaN	NaN	NaN	NaN	NaN	NaN	NaN	NaN	NaN	NaN	NaN	NaN	NaN	NaN	NaN	NaN	NaN	NaN	NaN	NaN	NaN
174	1.73	1100.698	1624.00684	1341.72583	1114.72339	1645.50647	1472.79785	985.66003	1559.20166	1368.31641	1003.79419	1580.23645	1495.76013	990.1344	1410.22485	1423.77161	983.88623	1098.22925	1425.81604	1117.34412	1346.64856	1434.99512	1177.52563	1186.02515	1437.48376	946.19489	1230.88245	1514.25623	1082.96704	1376.44849	1275.4552	1087.0105	1176.77515	1206.43298	1089.87244	1053.29211	1195.05786	1102.1731	923.26233	1193.69653	1095.82117	802.29138	1218.86572	1091.18542	813.04089	1162.38049	1085.98584	726.35883	1169.88416	1051.58179	1370.48059	1589.0752	1071.19434	1152.25867	1670.20959	1103.03271	1044.50842	1688.75842	1147.52283	914.89111	1695.13721	1201.448	830.11908	1663.71155	1167.25244	816.01892	1703.07544	1208.2373	754.0061	1696.14001	1162.21252	945.31946	1325.17102	1135.89783	938.48962	1561.05481	994.21185	966.23499	1356.68652	980.85413	966.52045	1505.0249	1142.28198	640.41339	1286.99011	1164.25952	469.24191	1341.32056	1112.26355	274.93747	1341.64758	1079.8241	71.31788	1391.86133	1035.85156	38.4096	1427.26453	1228.36755	36.41361	1414.84424	1113.15881	639.97546	1605.27795	1158.99597	465.14832	1589.26392	1012.58801	345.11734	1587.66431	846.03156	210.14182	1542.35437	797.06177	220.21675	1486.41357	901.6767	78.08118	1530.82593	1014.75153	1674.85559	1397.74609	NaN	NaN	NaN	NaN	NaN	NaN	NaN	NaN	NaN	NaN	NaN	NaN	NaN	NaN	NaN	NaN	NaN	NaN	NaN	NaN	NaN
175	1.74	1113.24902	1624.90833	1340.78564	1127.31836	1646.44373	1471.82666	998.15369	1560.1803	1367.47791	1016.32629	1581.26306	1494.87549	1002.60138	1411.33276	1423.09888	995.81952	1099.44434	1424.81177	1129.63794	1347.57385	1434.19275	1189.59875	1186.83704	1436.60535	958.3338	1232.37708	1513.58069	1094.71008	1377.46082	1274.68665	1101.39441	1178.09387	1205.77429	1107.41455	1054.97937	1194.50476	1123.08691	925.10187	1193.30127	1118.60559	803.77161	1219.40381	1115.04089	814.69104	1162.33679	1116.91443	728.76508	1169.44031	1064.0459	1371.67041	1588.37317	1082.04187	1153.00293	1669.1532	1112.56335	1044.78516	1687.28906	1153.42969	913.99976	1693.88293	1204.29895	827.2439	1662.30017	1170.32483	814.55389	1702.42371	1209.0802	750.98376	1695.0592	1173.58447	945.9588	1323.61865	1149.38513	940.91949	1559.71741	1006.67773	966.72363	1355.91418	993.26044	968.09857	1504.39551	1149.2533	640.05811	1286.7572	1167.89563	468.54102	1340.95911	1113.81213	274.90103	1341.42419	1079.97168	71.52628	1391.88025	1035.87585	38.67862	1427.31372	1228.4856	36.38136	1414.82727	1132.13269	642.40948	1604.3064	1182.44287	469.0423	1588.06372	1039.38538	345.41428	1586.72974	876.73303	205.20935	1542.28748	826.71875	212.38052	1486.44702	939.33209	76.72096	1532.40833	1027.34668	1675.67346	1396.64758	NaN	NaN	NaN	NaN	NaN	NaN	NaN	NaN	NaN	NaN	NaN	NaN	NaN	NaN	NaN	NaN	NaN	NaN	NaN	NaN	NaN
176	1.75	1125.7395	1625.55762	1339.85083	1139.90845	1647.2085	1470.81287	1010.58173	1561.03015	1366.7251	1028.98962	1582.15222	1494.08264	1014.73749	1412.31689	1422.67615	1007.6781	1100.44177	1423.85059	1141.92688	1348.35046	1433.37305	1201.64197	1187.55554	1435.65332	970.52496	1233.70679	1512.99451	1106.40881	1378.40649	1273.8811	1115.33801	1179.3833	1204.91711	1124.66895	1056.33655	1193.73047	1144.07336	927.11005	1192.93506	1143.68457	806.10333	1219.36597	1139.24365	816.47485	1162.77112	1147.05115	731.97992	1169.69177	1076.60938	1372.71252	1587.57874	1092.7627	1153.71033	1668.14417	1121.85144	1044.97839	1685.78699	1159.16406	913.16565	1692.56335	1207.07507	824.56244	1660.90527	1173.34973	813.26538	1701.7135	1209.93457	748.18744	1694.15735	1184.78284	946.31445	1321.94885	1161.60413	942.71277	1557.81177	1019.32788	967.51807	1355.77881	1005.67145	969.44067	1503.75171	1155.9408	639.86548	1286.42273	1171.55347	467.81891	1340.51685	1115.61597	274.89694	1341.2063	1080.021	71.54396	1391.86133	1035.96326	39.02695	1427.28381	1228.72021	36.33568	1414.99023	1150.52649	644.99988	1603.33374	1205.56055	473.07977	1587.05493	1066.2998	344.90656	1585.79028	908.40479	198.97865	1542.17725	857.60089	203.10121	1486.57532	977.7843	74.17455	1533.1698	1039.80505	1676.84778	1396.01306	NaN	NaN	NaN	NaN	NaN	NaN	NaN	NaN	NaN	NaN	NaN	NaN	NaN	NaN	NaN	NaN	NaN	NaN	NaN	NaN	NaN
